<?xml version="1.0" encoding="UTF-8" standalone="no"?>
<!-- Created with Inkscape (http://www.inkscape.org/) -->

<svg
   xmlns:dc="http://purl.org/dc/elements/1.1/"
   xmlns:cc="http://creativecommons.org/ns#"
   xmlns:rdf="http://www.w3.org/1999/02/22-rdf-syntax-ns#"
   xmlns:svg="http://www.w3.org/2000/svg"
   xmlns="http://www.w3.org/2000/svg"
   xmlns:sodipodi="http://sodipodi.sourceforge.net/DTD/sodipodi-0.dtd"
   xmlns:inkscape="http://www.inkscape.org/namespaces/inkscape"
   width="110.07768mm"
   height="6.6180282mm"
   viewBox="0 0 110.07768 6.6180282"
   version="1.1"
   id="svg8"
   inkscape:version="0.92.4 (5da689c313, 2019-01-14)"
   sodipodi:docname="Repo_title.svg"
   inkscape:export-filename="C:\Users\ko40\Desktop\Financial_Dashboard_App\Images\Repo_title.png"
   inkscape:export-xdpi="96"
   inkscape:export-ydpi="96">
  <defs
     id="defs2" />
  <sodipodi:namedview
     id="base"
     pagecolor="#ffffff"
     bordercolor="#666666"
     borderopacity="1.0"
     inkscape:pageopacity="0.0"
     inkscape:pageshadow="2"
     inkscape:zoom="1.3502208"
     inkscape:cx="428.24151"
     inkscape:cy="-157.16556"
     inkscape:document-units="mm"
     inkscape:current-layer="layer1"
     showgrid="false"
     inkscape:window-width="1920"
     inkscape:window-height="1017"
     inkscape:window-x="-8"
     inkscape:window-y="-8"
     inkscape:window-maximized="1" />
  <metadata
     id="metadata5">
    <rdf:RDF>
      <cc:Work
         rdf:about="">
        <dc:format>image/svg+xml</dc:format>
        <dc:type
           rdf:resource="http://purl.org/dc/dcmitype/StillImage" />
        <dc:title />
      </cc:Work>
    </rdf:RDF>
  </metadata>
  <g
     inkscape:label="Layer 1"
     inkscape:groupmode="layer"
     id="layer1"
     transform="translate(-46.654173,-71.912309)">
    <g
       aria-label="Financial Dashboard Application"
       transform="scale(0.26458333)"
       style="font-style:normal;font-variant:normal;font-weight:normal;font-stretch:normal;font-size:26.66666603px;line-height:1.25;font-family:Arial;-inkscape-font-specification:Arial;text-align:center;letter-spacing:0px;word-spacing:0px;text-anchor:middle;fill:#430098;fill-opacity:1;stroke:none"
       id="flowRoot4518">
      <path
         d="m 187.81511,275.10185 h -7.61719 v 4.88281 h 6.36719 q 0.88542,0 1.3151,0.40365 0.44271,0.39062 0.44271,1.05469 0,0.66406 -0.44271,1.05468 -0.44271,0.39063 -1.3151,0.39063 h -6.36719 v 6.28906 q 0,1.19792 -0.54687,1.78385 -0.53386,0.57292 -1.38021,0.57292 -0.85938,0 -1.40625,-0.58594 -0.53386,-0.58593 -0.53386,-1.77083 v -14.6875 q 0,-0.83333 0.2474,-1.35417 0.2474,-0.53385 0.76823,-0.76822 0.53385,-0.2474 1.35417,-0.2474 h 9.11458 q 0.92448,0 1.36719,0.41667 0.45573,0.40364 0.45573,1.0677 0,0.67709 -0.45573,1.09375 -0.44271,0.40365 -1.36719,0.40365 z"
         style="font-style:normal;font-variant:normal;font-weight:normal;font-stretch:normal;font-family:'Arial Rounded MT Bold';-inkscape-font-specification:'Arial Rounded MT Bold, ';fill:#430098;fill-opacity:1"
         id="path820" />
      <path
         d="m 195.47787,279.09925 v 10.27343 q 0,1.06771 -0.50781,1.61459 -0.50782,0.54687 -1.28907,0.54687 -0.78125,0 -1.27604,-0.55989 -0.48177,-0.5599 -0.48177,-1.60157 v -10.16927 q 0,-1.05469 0.48177,-1.58854 0.49479,-0.53385 1.27604,-0.53385 0.78125,0 1.28907,0.53385 0.50781,0.53385 0.50781,1.48438 z m -1.75781,-3.67188 q -0.74219,0 -1.27604,-0.45573 -0.52084,-0.45573 -0.52084,-1.28906 0,-0.75521 0.53386,-1.23698 0.54687,-0.49479 1.26302,-0.49479 0.6901,0 1.22396,0.44271 0.53385,0.44271 0.53385,1.28906 0,0.82031 -0.52083,1.28906 -0.52084,0.45573 -1.23698,0.45573 z"
         style="font-style:normal;font-variant:normal;font-weight:normal;font-stretch:normal;font-family:'Arial Rounded MT Bold';-inkscape-font-specification:'Arial Rounded MT Bold, ';fill:#430098;fill-opacity:1"
         id="path822" />
      <path
         d="m 202.41146,279.04716 v 0.42969 q 0.9375,-1.23698 2.04427,-1.8099 1.11979,-0.58593 2.56511,-0.58593 1.40625,0 2.51302,0.61198 1.10677,0.61197 1.65364,1.73177 0.35157,0.65104 0.45573,1.40625 0.10417,0.7552 0.10417,1.92708 v 6.61458 q 0,1.06771 -0.49479,1.61459 -0.48177,0.54687 -1.26302,0.54687 -0.79427,0 -1.28907,-0.55989 -0.49479,-0.5599 -0.49479,-1.60157 v -5.92448 q 0,-1.75781 -0.49479,-2.68229 -0.48177,-0.9375 -1.9401,-0.9375 -0.95052,0 -1.73177,0.57292 -0.78125,0.55989 -1.14584,1.54948 -0.26041,0.79427 -0.26041,2.96875 v 4.45312 q 0,1.08073 -0.50782,1.62761 -0.49479,0.53385 -1.28906,0.53385 -0.76823,0 -1.26302,-0.55989 -0.49479,-0.5599 -0.49479,-1.60157 v -10.27343 q 0,-1.01563 0.44271,-1.51042 0.44271,-0.50781 1.21093,-0.50781 0.46875,0 0.84636,0.22135 0.3776,0.22135 0.59896,0.66406 0.23437,0.44271 0.23437,1.08073 z"
         style="font-style:normal;font-variant:normal;font-weight:normal;font-stretch:normal;font-family:'Arial Rounded MT Bold';-inkscape-font-specification:'Arial Rounded MT Bold, ';fill:#430098;fill-opacity:1"
         id="path824" />
      <path
         d="m 224.26042,289.52893 q -1.28906,1.00261 -2.5,1.51042 -1.19792,0.49479 -2.69531,0.49479 -1.36719,0 -2.40886,-0.53385 -1.02864,-0.54688 -1.58854,-1.47136 -0.55989,-0.92448 -0.55989,-2.00521 0,-1.45833 0.92448,-2.48697 0.92447,-1.02865 2.53906,-1.38021 0.33854,-0.0781 1.67969,-0.35157 1.34114,-0.27343 2.29166,-0.49479 0.96354,-0.23437 2.08334,-0.55989 -0.0651,-1.40625 -0.57292,-2.05729 -0.49479,-0.66407 -2.07031,-0.66407 -1.35417,0 -2.04427,0.37761 -0.67709,0.3776 -1.17188,1.13281 -0.48177,0.75521 -0.6901,1.0026 -0.19532,0.23438 -0.85938,0.23438 -0.59896,0 -1.04167,-0.37761 -0.42968,-0.39062 -0.42968,-0.98958 0,-0.9375 0.66406,-1.82292 0.66406,-0.88541 2.07031,-1.45833 1.40625,-0.57292 3.50261,-0.57292 2.34375,0 3.68489,0.5599 1.34115,0.54688 1.88802,1.74479 0.5599,1.19792 0.5599,3.17709 0,1.25 -0.013,2.12239 0,0.8724 -0.013,1.94011 0,1.0026 0.32552,2.09635 0.33854,1.08073 0.33854,1.39323 0,0.54687 -0.52083,1.0026 -0.50782,0.44271 -1.15886,0.44271 -0.54687,0 -1.08073,-0.50781 -0.53385,-0.52083 -1.13281,-1.4974 z m -0.23437,-5.14323 q -0.78125,0.28646 -2.27865,0.61198 -1.48438,0.3125 -2.05729,0.46875 -0.57292,0.14323 -1.09375,0.58594 -0.52084,0.42969 -0.52084,1.21094 0,0.80729 0.61198,1.38021 0.61198,0.55989 1.60157,0.55989 1.05468,0 1.9401,-0.45573 0.89844,-0.46875 1.3151,-1.19791 0.48178,-0.8073 0.48178,-2.65625 z"
         style="font-style:normal;font-variant:normal;font-weight:normal;font-stretch:normal;font-family:'Arial Rounded MT Bold';-inkscape-font-specification:'Arial Rounded MT Bold, ';fill:#430098;fill-opacity:1"
         id="path826" />
      <path
         d="m 234.33854,279.04716 v 0.42969 q 0.9375,-1.23698 2.04427,-1.8099 1.1198,-0.58593 2.56511,-0.58593 1.40625,0 2.51302,0.61198 1.10677,0.61197 1.65365,1.73177 0.35156,0.65104 0.45572,1.40625 0.10417,0.7552 0.10417,1.92708 v 6.61458 q 0,1.06771 -0.49479,1.61459 -0.48177,0.54687 -1.26302,0.54687 -0.79427,0 -1.28906,-0.55989 -0.4948,-0.5599 -0.4948,-1.60157 v -5.92448 q 0,-1.75781 -0.49479,-2.68229 -0.48177,-0.9375 -1.9401,-0.9375 -0.95052,0 -1.73177,0.57292 -0.78125,0.55989 -1.14584,1.54948 -0.26041,0.79427 -0.26041,2.96875 v 4.45312 q 0,1.08073 -0.50781,1.62761 -0.4948,0.53385 -1.28907,0.53385 -0.76823,0 -1.26302,-0.55989 -0.49479,-0.5599 -0.49479,-1.60157 v -10.27343 q 0,-1.01563 0.44271,-1.51042 0.44271,-0.50781 1.21094,-0.50781 0.46875,0 0.84635,0.22135 0.3776,0.22135 0.59896,0.66406 0.23437,0.44271 0.23437,1.08073 z"
         style="font-style:normal;font-variant:normal;font-weight:normal;font-stretch:normal;font-family:'Arial Rounded MT Bold';-inkscape-font-specification:'Arial Rounded MT Bold, ';fill:#430098;fill-opacity:1"
         id="path828" />
      <path
         d="m 259.95052,287.1331 q 0,0.66406 -0.40364,1.41927 -0.39063,0.75521 -1.21094,1.44531 -0.80729,0.67709 -2.04427,1.09375 -1.23698,0.41667 -2.78646,0.41667 -3.29427,0 -5.14323,-1.91406 -1.84896,-1.92709 -1.84896,-5.15625 0,-2.1875 0.84636,-3.86719 0.84635,-1.67969 2.44791,-2.59115 1.60157,-0.92448 3.82813,-0.92448 1.38021,0 2.52604,0.40365 1.15885,0.40365 1.95313,1.04167 0.80729,0.63802 1.22395,1.36718 0.42969,0.71615 0.42969,1.34115 0,0.63802 -0.48177,1.08073 -0.46875,0.44271 -1.14583,0.44271 -0.44271,0 -0.74219,-0.22136 -0.28646,-0.23437 -0.65104,-0.74218 -0.65104,-0.98959 -1.36719,-1.48438 -0.70312,-0.49479 -1.79687,-0.49479 -1.57553,0 -2.53907,1.23698 -0.96354,1.22396 -0.96354,3.35937 0,1.00261 0.2474,1.84896 0.24739,0.83334 0.71614,1.43229 0.46875,0.58594 1.13282,0.89844 0.66406,0.29948 1.45833,0.29948 1.06771,0 1.82292,-0.49479 0.76822,-0.49479 1.35416,-1.51042 0.32552,-0.59896 0.70313,-0.9375 0.3776,-0.33854 0.92448,-0.33854 0.65104,0 1.08073,0.49479 0.42968,0.49479 0.42968,1.05469 z"
         style="font-style:normal;font-variant:normal;font-weight:normal;font-stretch:normal;font-family:'Arial Rounded MT Bold';-inkscape-font-specification:'Arial Rounded MT Bold, ';fill:#430098;fill-opacity:1"
         id="path830" />
      <path
         d="m 266.59115,279.09925 v 10.27343 q 0,1.06771 -0.50781,1.61459 -0.50781,0.54687 -1.28906,0.54687 -0.78125,0 -1.27605,-0.55989 -0.48177,-0.5599 -0.48177,-1.60157 v -10.16927 q 0,-1.05469 0.48177,-1.58854 0.4948,-0.53385 1.27605,-0.53385 0.78125,0 1.28906,0.53385 0.50781,0.53385 0.50781,1.48438 z m -1.75781,-3.67188 q -0.74219,0 -1.27604,-0.45573 -0.52084,-0.45573 -0.52084,-1.28906 0,-0.75521 0.53386,-1.23698 0.54687,-0.49479 1.26302,-0.49479 0.6901,0 1.22396,0.44271 0.53385,0.44271 0.53385,1.28906 0,0.82031 -0.52083,1.28906 -0.52084,0.45573 -1.23698,0.45573 z"
         style="font-style:normal;font-variant:normal;font-weight:normal;font-stretch:normal;font-family:'Arial Rounded MT Bold';-inkscape-font-specification:'Arial Rounded MT Bold, ';fill:#430098;fill-opacity:1"
         id="path832" />
      <path
         d="m 279.26042,289.52893 q -1.28907,1.00261 -2.5,1.51042 -1.19792,0.49479 -2.69532,0.49479 -1.36718,0 -2.40885,-0.53385 -1.02865,-0.54688 -1.58854,-1.47136 -0.5599,-0.92448 -0.5599,-2.00521 0,-1.45833 0.92448,-2.48697 0.92448,-1.02865 2.53906,-1.38021 0.33855,-0.0781 1.67969,-0.35157 1.34115,-0.27343 2.29167,-0.49479 0.96354,-0.23437 2.08333,-0.55989 -0.0651,-1.40625 -0.57292,-2.05729 -0.49479,-0.66407 -2.07031,-0.66407 -1.35416,0 -2.04427,0.37761 -0.67708,0.3776 -1.17187,1.13281 -0.48177,0.75521 -0.69011,1.0026 -0.19531,0.23438 -0.85937,0.23438 -0.59896,0 -1.04167,-0.37761 -0.42969,-0.39062 -0.42969,-0.98958 0,-0.9375 0.66407,-1.82292 0.66406,-0.88541 2.07031,-1.45833 1.40625,-0.57292 3.5026,-0.57292 2.34375,0 3.6849,0.5599 1.34114,0.54688 1.88802,1.74479 0.55989,1.19792 0.55989,3.17709 0,1.25 -0.013,2.12239 0,0.8724 -0.013,1.94011 0,1.0026 0.32552,2.09635 0.33855,1.08073 0.33855,1.39323 0,0.54687 -0.52084,1.0026 -0.50781,0.44271 -1.15885,0.44271 -0.54688,0 -1.08073,-0.50781 -0.53386,-0.52083 -1.13281,-1.4974 z m -0.23438,-5.14323 q -0.78125,0.28646 -2.27864,0.61198 -1.48438,0.3125 -2.0573,0.46875 -0.57291,0.14323 -1.09375,0.58594 -0.52083,0.42969 -0.52083,1.21094 0,0.80729 0.61198,1.38021 0.61198,0.55989 1.60156,0.55989 1.05469,0 1.94011,-0.45573 0.89843,-0.46875 1.3151,-1.19791 0.48177,-0.8073 0.48177,-2.65625 z"
         style="font-style:normal;font-variant:normal;font-weight:normal;font-stretch:normal;font-family:'Arial Rounded MT Bold';-inkscape-font-specification:'Arial Rounded MT Bold, ';fill:#430098;fill-opacity:1"
         id="path834" />
      <path
         d="m 286.10938,289.37268 v -15.41666 q 0,-1.06771 0.46875,-1.61459 0.48177,-0.54687 1.28906,-0.54687 0.80729,0 1.30208,0.54687 0.49479,0.53386 0.49479,1.61459 v 15.41666 q 0,1.08073 -0.50781,1.62761 -0.49479,0.53385 -1.28906,0.53385 -0.78125,0 -1.27604,-0.55989 -0.48177,-0.5599 -0.48177,-1.60157 z"
         style="font-style:normal;font-variant:normal;font-weight:normal;font-stretch:normal;font-family:'Arial Rounded MT Bold';-inkscape-font-specification:'Arial Rounded MT Bold, ';fill:#430098;fill-opacity:1"
         id="path836" />
      <path
         d="m 302.65886,272.12008 h 5.03906 q 1.96614,0 3.37239,0.36458 1.40625,0.36459 2.55209,1.36719 2.98177,2.55208 2.98177,7.76042 0,1.71875 -0.29948,3.13802 -0.29948,1.41927 -0.92448,2.5651 -0.625,1.13281 -1.60156,2.03125 -0.76823,0.69011 -1.67969,1.10677 -0.91146,0.41667 -1.96615,0.58594 -1.04166,0.16927 -2.35677,0.16927 h -5.03906 q -1.05469,0 -1.58854,-0.3125 -0.53385,-0.32552 -0.70313,-0.89844 -0.15625,-0.58593 -0.15625,-1.51041 v -13.9974 q 0,-1.25 0.5599,-1.80989 0.5599,-0.5599 1.8099,-0.5599 z m 1.49739,3.0599 v 12.95572 h 2.92969 q 0.96354,0 1.51042,-0.0521 0.54687,-0.0521 1.13281,-0.26042 0.58594,-0.20833 1.01562,-0.58593 1.94011,-1.64063 1.94011,-5.65105 0,-2.82552 -0.85938,-4.23177 -0.84635,-1.40625 -2.09635,-1.78385 -1.25,-0.39062 -3.02083,-0.39062 z"
         style="font-style:normal;font-variant:normal;font-weight:normal;font-stretch:normal;font-family:'Arial Rounded MT Bold';-inkscape-font-specification:'Arial Rounded MT Bold, ';fill:#430098;fill-opacity:1"
         id="path838" />
      <path
         d="m 328.73959,289.52893 q -1.28906,1.00261 -2.5,1.51042 -1.19792,0.49479 -2.69531,0.49479 -1.36719,0 -2.40886,-0.53385 -1.02864,-0.54688 -1.58854,-1.47136 -0.5599,-0.92448 -0.5599,-2.00521 0,-1.45833 0.92448,-2.48697 0.92448,-1.02865 2.53907,-1.38021 0.33854,-0.0781 1.67968,-0.35157 1.34115,-0.27343 2.29167,-0.49479 0.96354,-0.23437 2.08333,-0.55989 -0.0651,-1.40625 -0.57291,-2.05729 -0.4948,-0.66407 -2.07032,-0.66407 -1.35416,0 -2.04427,0.37761 -0.67708,0.3776 -1.17187,1.13281 -0.48177,0.75521 -0.69011,1.0026 -0.19531,0.23438 -0.85937,0.23438 -0.59896,0 -1.04167,-0.37761 -0.42969,-0.39062 -0.42969,-0.98958 0,-0.9375 0.66407,-1.82292 0.66406,-0.88541 2.07031,-1.45833 1.40625,-0.57292 3.5026,-0.57292 2.34375,0 3.6849,0.5599 1.34115,0.54688 1.88802,1.74479 0.5599,1.19792 0.5599,3.17709 0,1.25 -0.013,2.12239 0,0.8724 -0.013,1.94011 0,1.0026 0.32553,2.09635 0.33854,1.08073 0.33854,1.39323 0,0.54687 -0.52084,1.0026 -0.50781,0.44271 -1.15885,0.44271 -0.54688,0 -1.08073,-0.50781 -0.53385,-0.52083 -1.13281,-1.4974 z m -0.23438,-5.14323 q -0.78125,0.28646 -2.27864,0.61198 -1.48438,0.3125 -2.05729,0.46875 -0.57292,0.14323 -1.09375,0.58594 -0.52084,0.42969 -0.52084,1.21094 0,0.80729 0.61198,1.38021 0.61198,0.55989 1.60156,0.55989 1.05469,0 1.94011,-0.45573 0.89844,-0.46875 1.3151,-1.19791 0.48177,-0.8073 0.48177,-2.65625 z"
         style="font-style:normal;font-variant:normal;font-weight:normal;font-stretch:normal;font-family:'Arial Rounded MT Bold';-inkscape-font-specification:'Arial Rounded MT Bold, ';fill:#430098;fill-opacity:1"
         id="path840" />
      <path
         d="m 347.03385,286.8857 q 0,1.47136 -0.71614,2.52605 -0.71615,1.04166 -2.1224,1.58854 -1.39323,0.53385 -3.39844,0.53385 -1.91406,0 -3.28125,-0.58594 -1.36718,-0.58593 -2.01822,-1.45833 -0.65105,-0.88542 -0.65105,-1.77083 0,-0.58594 0.41667,-1.00261 0.41667,-0.41666 1.05469,-0.41666 0.55989,0 0.85937,0.27343 0.29948,0.27344 0.57292,0.76823 0.54687,0.95052 1.30208,1.41927 0.76823,0.46875 2.08334,0.46875 1.0677,0 1.74479,-0.46875 0.6901,-0.48177 0.6901,-1.09375 0,-0.9375 -0.71614,-1.36718 -0.70313,-0.42969 -2.33073,-0.82032 -1.83594,-0.45573 -2.99479,-0.95052 -1.14584,-0.50781 -1.83594,-1.32812 -0.69011,-0.82031 -0.69011,-2.01823 0,-1.06771 0.63802,-2.01823 0.63803,-0.95052 1.875,-1.51042 1.25,-0.57291 3.00782,-0.57291 1.38021,0 2.47396,0.28645 1.10677,0.28646 1.83593,0.76823 0.74219,0.48177 1.11979,1.06771 0.39063,0.58594 0.39063,1.14584 0,0.61197 -0.41667,1.0026 -0.40364,0.39062 -1.15885,0.39062 -0.54688,0 -0.9375,-0.3125 -0.37761,-0.3125 -0.8724,-0.9375 -0.40364,-0.52083 -0.95052,-0.83333 -0.54687,-0.3125 -1.48437,-0.3125 -0.96354,0 -1.60157,0.41667 -0.63802,0.40364 -0.63802,1.01562 0,0.5599 0.46875,0.92448 0.46875,0.35156 1.26302,0.58594 0.79428,0.23437 2.1875,0.57292 1.65365,0.40364 2.69532,0.96354 1.05468,0.55989 1.58854,1.32812 0.54687,0.75521 0.54687,1.73177 z"
         style="font-style:normal;font-variant:normal;font-weight:normal;font-stretch:normal;font-family:'Arial Rounded MT Bold';-inkscape-font-specification:'Arial Rounded MT Bold, ';fill:#430098;fill-opacity:1"
         id="path842" />
      <path
         d="m 353.54428,273.95602 v 5.27343 q 0.67708,-0.78125 1.3151,-1.23698 0.65104,-0.45572 1.43229,-0.67708 0.78125,-0.23437 1.67969,-0.23437 1.35417,0 2.39583,0.57291 1.05469,0.57292 1.65365,1.66667 0.3776,0.63802 0.50781,1.43229 0.13021,0.78125 0.13021,1.8099 v 6.80989 q 0,1.06771 -0.49479,1.61459 -0.48177,0.54687 -1.28907,0.54687 -1.75781,0 -1.75781,-2.16146 v -6.0026 q 0,-1.70573 -0.50781,-2.61719 -0.50781,-0.92448 -1.92708,-0.92448 -0.95052,0 -1.71875,0.54688 -0.75521,0.53385 -1.13282,1.47135 -0.28645,0.79427 -0.28645,2.82552 v 4.70052 q 0,1.05469 -0.48178,1.61459 -0.46875,0.54687 -1.3151,0.54687 -1.75781,0 -1.75781,-2.16146 v -15.41666 q 0,-1.08073 0.45573,-1.61459 0.46875,-0.54687 1.30208,-0.54687 0.84635,0 1.3151,0.54687 0.48178,0.54688 0.48178,1.61459 z"
         style="font-style:normal;font-variant:normal;font-weight:normal;font-stretch:normal;font-family:'Arial Rounded MT Bold';-inkscape-font-specification:'Arial Rounded MT Bold, ';fill:#430098;fill-opacity:1"
         id="path844" />
      <path
         d="m 369.44271,273.82581 v 5.42969 q 1.00261,-1.04167 2.04427,-1.58855 1.04167,-0.55989 2.57813,-0.55989 1.77083,0 3.09896,0.84635 1.34114,0.83334 2.07031,2.4349 0.74219,1.58854 0.74219,3.77604 0,1.61458 -0.41667,2.96875 -0.40365,1.34115 -1.1849,2.33073 -0.78125,0.98958 -1.90104,1.53646 -1.10677,0.53385 -2.44791,0.53385 -0.82032,0 -1.54948,-0.19531 -0.71615,-0.19531 -1.22396,-0.50781 -0.50781,-0.32552 -0.8724,-0.66407 -0.35156,-0.33854 -0.9375,-1.01562 v 0.35156 q 0,1.00261 -0.48177,1.52344 -0.48177,0.50781 -1.22396,0.50781 -0.7552,0 -1.21093,-0.50781 -0.44271,-0.52083 -0.44271,-1.52344 v -15.52083 q 0,-1.08073 0.42969,-1.62761 0.4427,-0.55989 1.22395,-0.55989 0.82032,0 1.26302,0.53385 0.44271,0.52084 0.44271,1.4974 z m 0.16927,10.55989 q 0,2.1224 0.96355,3.26823 0.97656,1.13282 2.55208,1.13282 1.34114,0 2.30469,-1.15886 0.97656,-1.17187 0.97656,-3.34635 0,-1.40625 -0.40365,-2.42188 -0.40364,-1.01562 -1.14583,-1.5625 -0.74219,-0.55989 -1.73177,-0.55989 -1.01563,0 -1.8099,0.55989 -0.79427,0.54688 -1.25,1.60156 -0.45573,1.04167 -0.45573,2.48698 z"
         style="font-style:normal;font-variant:normal;font-weight:normal;font-stretch:normal;font-family:'Arial Rounded MT Bold';-inkscape-font-specification:'Arial Rounded MT Bold, ';fill:#430098;fill-opacity:1"
         id="path846" />
      <path
         d="m 396.13541,284.30758 q 0,1.58854 -0.49479,2.92969 -0.49479,1.34114 -1.43229,2.30468 -0.9375,0.96355 -2.23959,1.48438 -1.30208,0.50781 -2.92968,0.50781 -1.61459,0 -2.90365,-0.52083 -1.28906,-0.52084 -2.23958,-1.48438 -0.9375,-0.97656 -1.43229,-2.29166 -0.48177,-1.32813 -0.48177,-2.92969 0,-1.61458 0.49479,-2.95573 0.49479,-1.34115 1.41927,-2.29167 0.92448,-0.95052 2.23958,-1.45833 1.31511,-0.52083 2.90365,-0.52083 1.61458,0 2.92968,0.52083 1.31511,0.52083 2.25261,1.48437 0.9375,0.96355 1.41927,2.29167 0.49479,1.32813 0.49479,2.92969 z m -3.56771,0 q 0,-2.17448 -0.96354,-3.38542 -0.95052,-1.21094 -2.5651,-1.21094 -1.04167,0 -1.83594,0.54688 -0.79427,0.53385 -1.22396,1.58854 -0.42969,1.05469 -0.42969,2.46094 0,1.39323 0.41667,2.43489 0.42969,1.04167 1.21094,1.60157 0.79427,0.54687 1.86198,0.54687 1.61458,0 2.5651,-1.21094 0.96354,-1.22395 0.96354,-3.37239 z"
         style="font-style:normal;font-variant:normal;font-weight:normal;font-stretch:normal;font-family:'Arial Rounded MT Bold';-inkscape-font-specification:'Arial Rounded MT Bold, ';fill:#430098;fill-opacity:1"
         id="path848" />
      <path
         d="m 407.90624,289.52893 q -1.28906,1.00261 -2.5,1.51042 -1.19791,0.49479 -2.69531,0.49479 -1.36719,0 -2.40885,-0.53385 -1.02865,-0.54688 -1.58854,-1.47136 -0.5599,-0.92448 -0.5599,-2.00521 0,-1.45833 0.92448,-2.48697 0.92448,-1.02865 2.53906,-1.38021 0.33854,-0.0781 1.67969,-0.35157 1.34115,-0.27343 2.29167,-0.49479 0.96354,-0.23437 2.08333,-0.55989 -0.0651,-1.40625 -0.57292,-2.05729 -0.49479,-0.66407 -2.07031,-0.66407 -1.35417,0 -2.04427,0.37761 -0.67708,0.3776 -1.17188,1.13281 -0.48177,0.75521 -0.6901,1.0026 -0.19531,0.23438 -0.85937,0.23438 -0.59896,0 -1.04167,-0.37761 -0.42969,-0.39062 -0.42969,-0.98958 0,-0.9375 0.66406,-1.82292 0.66407,-0.88541 2.07032,-1.45833 1.40625,-0.57292 3.5026,-0.57292 2.34375,0 3.6849,0.5599 1.34114,0.54688 1.88802,1.74479 0.55989,1.19792 0.55989,3.17709 0,1.25 -0.013,2.12239 0,0.8724 -0.013,1.94011 0,1.0026 0.32552,2.09635 0.33854,1.08073 0.33854,1.39323 0,0.54687 -0.52083,1.0026 -0.50781,0.44271 -1.15885,0.44271 -0.54688,0 -1.08073,-0.50781 -0.53386,-0.52083 -1.13282,-1.4974 z m -0.23437,-5.14323 q -0.78125,0.28646 -2.27865,0.61198 -1.48437,0.3125 -2.05729,0.46875 -0.57291,0.14323 -1.09375,0.58594 -0.52083,0.42969 -0.52083,1.21094 0,0.80729 0.61198,1.38021 0.61198,0.55989 1.60156,0.55989 1.05469,0 1.9401,-0.45573 0.89844,-0.46875 1.31511,-1.19791 0.48177,-0.8073 0.48177,-2.65625 z"
         style="font-style:normal;font-variant:normal;font-weight:normal;font-stretch:normal;font-family:'Arial Rounded MT Bold';-inkscape-font-specification:'Arial Rounded MT Bold, ';fill:#430098;fill-opacity:1"
         id="path850" />
      <path
         d="m 418.28386,286.40393 v 2.96875 q 0,1.08073 -0.50781,1.62761 -0.50782,0.53385 -1.28907,0.53385 -0.76823,0 -1.26302,-0.54687 -0.49479,-0.54688 -0.49479,-1.61459 v -9.89583 q 0,-2.39583 1.73177,-2.39583 0.88542,0 1.27604,0.55989 0.39063,0.5599 0.42969,1.65365 0.63802,-1.09375 1.30208,-1.65365 0.67709,-0.55989 1.79688,-0.55989 1.11979,0 2.17448,0.55989 1.05469,0.5599 1.05469,1.48438 0,0.65104 -0.45573,1.08073 -0.44271,0.41666 -0.96354,0.41666 -0.19532,0 -0.95053,-0.23437 -0.74218,-0.2474 -1.3151,-0.2474 -0.78125,0 -1.27604,0.41667 -0.49479,0.40364 -0.76823,1.21094 -0.27344,0.80729 -0.3776,1.92708 -0.10417,1.10677 -0.10417,2.70833 z"
         style="font-style:normal;font-variant:normal;font-weight:normal;font-stretch:normal;font-family:'Arial Rounded MT Bold';-inkscape-font-specification:'Arial Rounded MT Bold, ';fill:#430098;fill-opacity:1"
         id="path852" />
      <path
         d="m 435.45183,289.50289 v -0.35156 q -0.71615,0.82031 -1.41927,1.34114 -0.69011,0.50782 -1.51042,0.76823 -0.80729,0.27344 -1.77083,0.27344 -1.27604,0 -2.36979,-0.53385 -1.08073,-0.54688 -1.875,-1.54948 -0.79428,-1.00261 -1.21094,-2.35677 -0.40365,-1.35417 -0.40365,-2.92969 0,-3.33333 1.62761,-5.19531 1.6276,-1.86198 4.28385,-1.86198 1.53646,0 2.59115,0.53385 1.05468,0.52084 2.05729,1.61459 v -5.2474 q 0,-1.09375 0.42969,-1.65365 0.4427,-0.55989 1.25,-0.55989 0.80729,0 1.23697,0.52083 0.44271,0.50781 0.44271,1.51042 v 15.67708 q 0,1.01563 -0.46875,1.52344 -0.46875,0.50781 -1.21093,0.50781 -0.72917,0 -1.21094,-0.52083 -0.46875,-0.53386 -0.46875,-1.51042 z m -6.99219,-5.22135 q 0,1.44531 0.44271,2.46093 0.45573,1.01563 1.23698,1.53646 0.78125,0.50782 1.70573,0.50782 0.9375,0 1.70573,-0.48178 0.78125,-0.49479 1.23698,-1.49739 0.46875,-1.01563 0.46875,-2.52604 0,-1.41927 -0.46875,-2.4349 -0.45573,-1.02864 -1.25,-1.5625 -0.78125,-0.54687 -1.71875,-0.54687 -0.97657,0 -1.7448,0.55989 -0.76823,0.54688 -1.19791,1.58854 -0.41667,1.02865 -0.41667,2.39584 z"
         style="font-style:normal;font-variant:normal;font-weight:normal;font-stretch:normal;font-family:'Arial Rounded MT Bold';-inkscape-font-specification:'Arial Rounded MT Bold, ';fill:#430098;fill-opacity:1"
         id="path854" />
      <path
         d="m 461.48696,289.04716 -0.91145,-2.39583 h -7.76042 l -0.91146,2.44792 q -0.53385,1.43229 -0.91146,1.9401 -0.3776,0.49479 -1.23698,0.49479 -0.72916,0 -1.28906,-0.53385 -0.5599,-0.53386 -0.5599,-1.21094 0,-0.39063 0.13021,-0.80729 0.13021,-0.41667 0.42969,-1.15886 l 4.88281,-12.39583 q 0.20834,-0.53385 0.49479,-1.27604 0.29948,-0.75521 0.625,-1.25 0.33855,-0.49479 0.8724,-0.79427 0.54688,-0.3125 1.34115,-0.3125 0.80729,0 1.34114,0.3125 0.54688,0.29948 0.8724,0.78125 0.33854,0.48177 0.55989,1.04167 0.23438,0.54687 0.58594,1.47135 l 4.98698,12.31771 q 0.58594,1.40625 0.58594,2.04427 0,0.66406 -0.5599,1.22396 -0.54687,0.54687 -1.32812,0.54687 -0.45573,0 -0.78125,-0.16927 -0.32552,-0.15625 -0.54688,-0.42969 -0.22135,-0.28646 -0.48177,-0.85937 -0.24739,-0.58594 -0.42969,-1.02865 z m -7.65625,-5.29948 h 5.70313 l -2.87761,-7.8776 z"
         style="font-style:normal;font-variant:normal;font-weight:normal;font-stretch:normal;font-family:'Arial Rounded MT Bold';-inkscape-font-specification:'Arial Rounded MT Bold, ';fill:#430098;fill-opacity:1"
         id="path856" />
      <path
         d="m 471.47396,279.0732 v 0.42969 q 1.00261,-1.23698 2.08334,-1.80989 1.08073,-0.58594 2.44791,-0.58594 1.64063,0 3.02084,0.84635 1.3802,0.84636 2.17448,2.47396 0.80729,1.6276 0.80729,3.85417 0,1.64062 -0.46875,3.02083 -0.45573,1.36719 -1.26302,2.30469 -0.8073,0.92448 -1.91407,1.43229 -1.09375,0.49479 -2.35677,0.49479 -1.52343,0 -2.5651,-0.61198 -1.02865,-0.61198 -1.96615,-1.79687 v 5.33854 q 0,2.34375 -1.70573,2.34375 -1.0026,0 -1.32812,-0.61198 -0.32552,-0.59896 -0.32552,-1.75781 v -15.33854 q 0,-1.01563 0.44271,-1.51042 0.4427,-0.50781 1.21093,-0.50781 0.75521,0 1.22396,0.52083 0.48177,0.50781 0.48177,1.47135 z m 6.96615,5.16927 q 0,-1.40625 -0.42969,-2.40885 -0.42969,-1.01562 -1.19792,-1.54948 -0.7552,-0.54687 -1.67968,-0.54687 -1.47136,0 -2.48698,1.15885 -1.00261,1.15885 -1.00261,3.41146 0,2.12239 1.00261,3.30729 1.0026,1.17188 2.48698,1.17188 0.88541,0 1.64062,-0.50782 0.75521,-0.52083 1.21094,-1.54948 0.45573,-1.02864 0.45573,-2.48698 z"
         style="font-style:normal;font-variant:normal;font-weight:normal;font-stretch:normal;font-family:'Arial Rounded MT Bold';-inkscape-font-specification:'Arial Rounded MT Bold, ';fill:#430098;fill-opacity:1"
         id="path858" />
      <path
         d="m 488.14062,279.0732 v 0.42969 q 1.0026,-1.23698 2.08333,-1.80989 1.08073,-0.58594 2.44792,-0.58594 1.64062,0 3.02083,0.84635 1.38021,0.84636 2.17448,2.47396 0.80729,1.6276 0.80729,3.85417 0,1.64062 -0.46875,3.02083 -0.45573,1.36719 -1.26302,2.30469 -0.80729,0.92448 -1.91406,1.43229 -1.09375,0.49479 -2.35677,0.49479 -1.52344,0 -2.5651,-0.61198 -1.02865,-0.61198 -1.96615,-1.79687 v 5.33854 q 0,2.34375 -1.70573,2.34375 -1.0026,0 -1.32812,-0.61198 -0.32553,-0.59896 -0.32553,-1.75781 v -15.33854 q 0,-1.01563 0.44271,-1.51042 0.44271,-0.50781 1.21094,-0.50781 0.75521,0 1.22396,0.52083 0.48177,0.50781 0.48177,1.47135 z m 6.96615,5.16927 q 0,-1.40625 -0.42969,-2.40885 -0.42969,-1.01562 -1.19792,-1.54948 -0.75521,-0.54687 -1.67969,-0.54687 -1.47135,0 -2.48698,1.15885 -1.0026,1.15885 -1.0026,3.41146 0,2.12239 1.0026,3.30729 1.00261,1.17188 2.48698,1.17188 0.88542,0 1.64063,-0.50782 0.75521,-0.52083 1.21094,-1.54948 0.45573,-1.02864 0.45573,-2.48698 z"
         style="font-style:normal;font-variant:normal;font-weight:normal;font-stretch:normal;font-family:'Arial Rounded MT Bold';-inkscape-font-specification:'Arial Rounded MT Bold, ';fill:#430098;fill-opacity:1"
         id="path860" />
      <path
         d="m 501.52603,289.37268 v -15.41666 q 0,-1.06771 0.46875,-1.61459 0.48177,-0.54687 1.28906,-0.54687 0.80729,0 1.30208,0.54687 0.49479,0.53386 0.49479,1.61459 v 15.41666 q 0,1.08073 -0.50781,1.62761 -0.49479,0.53385 -1.28906,0.53385 -0.78125,0 -1.27604,-0.55989 -0.48177,-0.5599 -0.48177,-1.60157 z"
         style="font-style:normal;font-variant:normal;font-weight:normal;font-stretch:normal;font-family:'Arial Rounded MT Bold';-inkscape-font-specification:'Arial Rounded MT Bold, ';fill:#430098;fill-opacity:1"
         id="path862" />
      <path
         d="m 512.32031,279.09925 v 10.27343 q 0,1.06771 -0.50782,1.61459 -0.50781,0.54687 -1.28906,0.54687 -0.78125,0 -1.27604,-0.55989 -0.48177,-0.5599 -0.48177,-1.60157 v -10.16927 q 0,-1.05469 0.48177,-1.58854 0.49479,-0.53385 1.27604,-0.53385 0.78125,0 1.28906,0.53385 0.50782,0.53385 0.50782,1.48438 z m -1.75782,-3.67188 q -0.74218,0 -1.27604,-0.45573 -0.52083,-0.45573 -0.52083,-1.28906 0,-0.75521 0.53385,-1.23698 0.54688,-0.49479 1.26302,-0.49479 0.69011,0 1.22396,0.44271 0.53386,0.44271 0.53386,1.28906 0,0.82031 -0.52084,1.28906 -0.52083,0.45573 -1.23698,0.45573 z"
         style="font-style:normal;font-variant:normal;font-weight:normal;font-stretch:normal;font-family:'Arial Rounded MT Bold';-inkscape-font-specification:'Arial Rounded MT Bold, ';fill:#430098;fill-opacity:1"
         id="path864" />
      <path
         d="m 528.75261,287.1331 q 0,0.66406 -0.40365,1.41927 -0.39062,0.75521 -1.21093,1.44531 -0.8073,0.67709 -2.04428,1.09375 -1.23697,0.41667 -2.78645,0.41667 -3.29427,0 -5.14323,-1.91406 -1.84896,-1.92709 -1.84896,-5.15625 0,-2.1875 0.84635,-3.86719 0.84636,-1.67969 2.44792,-2.59115 1.60156,-0.92448 3.82812,-0.92448 1.38021,0 2.52605,0.40365 1.15885,0.40365 1.95312,1.04167 0.80729,0.63802 1.22396,1.36718 0.42969,0.71615 0.42969,1.34115 0,0.63802 -0.48177,1.08073 -0.46875,0.44271 -1.14584,0.44271 -0.44271,0 -0.74218,-0.22136 -0.28646,-0.23437 -0.65105,-0.74218 -0.65104,-0.98959 -1.36718,-1.48438 -0.70313,-0.49479 -1.79688,-0.49479 -1.57552,0 -2.53906,1.23698 -0.96354,1.22396 -0.96354,3.35937 0,1.00261 0.24739,1.84896 0.2474,0.83334 0.71615,1.43229 0.46875,0.58594 1.13281,0.89844 0.66406,0.29948 1.45833,0.29948 1.06771,0 1.82292,-0.49479 0.76823,-0.49479 1.35417,-1.51042 0.32552,-0.59896 0.70312,-0.9375 0.37761,-0.33854 0.92448,-0.33854 0.65104,0 1.08073,0.49479 0.42969,0.49479 0.42969,1.05469 z"
         style="font-style:normal;font-variant:normal;font-weight:normal;font-stretch:normal;font-family:'Arial Rounded MT Bold';-inkscape-font-specification:'Arial Rounded MT Bold, ';fill:#430098;fill-opacity:1"
         id="path866" />
      <path
         d="m 540.8229,289.52893 q -1.28906,1.00261 -2.5,1.51042 -1.19792,0.49479 -2.69531,0.49479 -1.36719,0 -2.40886,-0.53385 -1.02864,-0.54688 -1.58854,-1.47136 -0.55989,-0.92448 -0.55989,-2.00521 0,-1.45833 0.92448,-2.48697 0.92448,-1.02865 2.53906,-1.38021 0.33854,-0.0781 1.67969,-0.35157 1.34114,-0.27343 2.29166,-0.49479 0.96354,-0.23437 2.08334,-0.55989 -0.0651,-1.40625 -0.57292,-2.05729 -0.49479,-0.66407 -2.07031,-0.66407 -1.35417,0 -2.04427,0.37761 -0.67709,0.3776 -1.17188,1.13281 -0.48177,0.75521 -0.6901,1.0026 -0.19532,0.23438 -0.85938,0.23438 -0.59896,0 -1.04166,-0.37761 -0.42969,-0.39062 -0.42969,-0.98958 0,-0.9375 0.66406,-1.82292 0.66406,-0.88541 2.07031,-1.45833 1.40625,-0.57292 3.50261,-0.57292 2.34375,0 3.68489,0.5599 1.34115,0.54688 1.88802,1.74479 0.5599,1.19792 0.5599,3.17709 0,1.25 -0.013,2.12239 0,0.8724 -0.013,1.94011 0,1.0026 0.32552,2.09635 0.33854,1.08073 0.33854,1.39323 0,0.54687 -0.52083,1.0026 -0.50782,0.44271 -1.15886,0.44271 -0.54687,0 -1.08073,-0.50781 -0.53385,-0.52083 -1.13281,-1.4974 z m -0.23437,-5.14323 q -0.78125,0.28646 -2.27865,0.61198 -1.48437,0.3125 -2.05729,0.46875 -0.57292,0.14323 -1.09375,0.58594 -0.52083,0.42969 -0.52083,1.21094 0,0.80729 0.61197,1.38021 0.61198,0.55989 1.60157,0.55989 1.05468,0 1.9401,-0.45573 0.89844,-0.46875 1.31511,-1.19791 0.48177,-0.8073 0.48177,-2.65625 z"
         style="font-style:normal;font-variant:normal;font-weight:normal;font-stretch:normal;font-family:'Arial Rounded MT Bold';-inkscape-font-specification:'Arial Rounded MT Bold, ';fill:#430098;fill-opacity:1"
         id="path868" />
      <path
         d="m 547.22265,277.39352 h 0.39063 v -2.13542 q 0,-0.85937 0.0391,-1.34115 0.0521,-0.49479 0.26042,-0.84635 0.20833,-0.36458 0.59895,-0.58594 0.39063,-0.23437 0.8724,-0.23437 0.67708,0 1.22396,0.50781 0.36458,0.33854 0.45573,0.83333 0.10416,0.48177 0.10416,1.38021 v 2.42188 h 1.30209 q 0.75521,0 1.14583,0.36458 0.40365,0.35156 0.40365,0.91146 0,0.71614 -0.57292,1.0026 -0.5599,0.28646 -1.61458,0.28646 h -0.66407 v 6.53646 q 0,0.83333 0.0521,1.28906 0.0651,0.44271 0.3125,0.72917 0.26041,0.27344 0.83333,0.27344 0.3125,0 0.84635,-0.10417 0.53386,-0.11719 0.83334,-0.11719 0.42969,0 0.76823,0.35156 0.35156,0.33855 0.35156,0.84636 0,0.85937 -0.9375,1.3151 -0.9375,0.45573 -2.69531,0.45573 -1.66667,0 -2.52604,-0.55989 -0.85938,-0.5599 -1.13282,-1.54948 -0.26041,-0.98959 -0.26041,-2.64323 v -6.82292 h -0.46875 q -0.76823,0 -1.17188,-0.36458 -0.40364,-0.36459 -0.40364,-0.92448 0,-0.5599 0.41666,-0.91146 0.42969,-0.36458 1.23698,-0.36458 z"
         style="font-style:normal;font-variant:normal;font-weight:normal;font-stretch:normal;font-family:'Arial Rounded MT Bold';-inkscape-font-specification:'Arial Rounded MT Bold, ';fill:#430098;fill-opacity:1"
         id="path870" />
      <path
         d="m 560.02865,279.09925 v 10.27343 q 0,1.06771 -0.50781,1.61459 -0.50781,0.54687 -1.28906,0.54687 -0.78125,0 -1.27605,-0.55989 -0.48177,-0.5599 -0.48177,-1.60157 v -10.16927 q 0,-1.05469 0.48177,-1.58854 0.4948,-0.53385 1.27605,-0.53385 0.78125,0 1.28906,0.53385 0.50781,0.53385 0.50781,1.48438 z m -1.75781,-3.67188 q -0.74219,0 -1.27604,-0.45573 -0.52084,-0.45573 -0.52084,-1.28906 0,-0.75521 0.53386,-1.23698 0.54687,-0.49479 1.26302,-0.49479 0.6901,0 1.22396,0.44271 0.53385,0.44271 0.53385,1.28906 0,0.82031 -0.52083,1.28906 -0.52084,0.45573 -1.23698,0.45573 z"
         style="font-style:normal;font-variant:normal;font-weight:normal;font-stretch:normal;font-family:'Arial Rounded MT Bold';-inkscape-font-specification:'Arial Rounded MT Bold, ';fill:#430098;fill-opacity:1"
         id="path872" />
      <path
         d="m 577.02082,284.30758 q 0,1.58854 -0.49479,2.92969 -0.4948,1.34114 -1.4323,2.30468 -0.9375,0.96355 -2.23958,1.48438 -1.30208,0.50781 -2.92969,0.50781 -1.61458,0 -2.90364,-0.52083 -1.28906,-0.52084 -2.23959,-1.48438 -0.9375,-0.97656 -1.43229,-2.29166 -0.48177,-1.32813 -0.48177,-2.92969 0,-1.61458 0.49479,-2.95573 0.4948,-1.34115 1.41927,-2.29167 0.92448,-0.95052 2.23959,-1.45833 1.3151,-0.52083 2.90364,-0.52083 1.61459,0 2.92969,0.52083 1.31511,0.52083 2.25261,1.48437 0.9375,0.96355 1.41927,2.29167 0.49479,1.32813 0.49479,2.92969 z m -3.56771,0 q 0,-2.17448 -0.96354,-3.38542 -0.95052,-1.21094 -2.56511,-1.21094 -1.04166,0 -1.83593,0.54688 -0.79427,0.53385 -1.22396,1.58854 -0.42969,1.05469 -0.42969,2.46094 0,1.39323 0.41667,2.43489 0.42968,1.04167 1.21093,1.60157 0.79428,0.54687 1.86198,0.54687 1.61459,0 2.56511,-1.21094 0.96354,-1.22395 0.96354,-3.37239 z"
         style="font-style:normal;font-variant:normal;font-weight:normal;font-stretch:normal;font-family:'Arial Rounded MT Bold';-inkscape-font-specification:'Arial Rounded MT Bold, ';fill:#430098;fill-opacity:1"
         id="path874" />
      <path
         d="m 583.03644,279.04716 v 0.42969 q 0.9375,-1.23698 2.04427,-1.8099 1.1198,-0.58593 2.56511,-0.58593 1.40625,0 2.51302,0.61198 1.10677,0.61197 1.65364,1.73177 0.35157,0.65104 0.45573,1.40625 0.10417,0.7552 0.10417,1.92708 v 6.61458 q 0,1.06771 -0.49479,1.61459 -0.48177,0.54687 -1.26302,0.54687 -0.79427,0 -1.28906,-0.55989 -0.4948,-0.5599 -0.4948,-1.60157 v -5.92448 q 0,-1.75781 -0.49479,-2.68229 -0.48177,-0.9375 -1.9401,-0.9375 -0.95052,0 -1.73177,0.57292 -0.78125,0.55989 -1.14584,1.54948 -0.26041,0.79427 -0.26041,2.96875 v 4.45312 q 0,1.08073 -0.50782,1.62761 -0.49479,0.53385 -1.28906,0.53385 -0.76823,0 -1.26302,-0.55989 -0.49479,-0.5599 -0.49479,-1.60157 v -10.27343 q 0,-1.01563 0.44271,-1.51042 0.44271,-0.50781 1.21094,-0.50781 0.46875,0 0.84635,0.22135 0.3776,0.22135 0.59896,0.66406 0.23437,0.44271 0.23437,1.08073 z"
         style="font-style:normal;font-variant:normal;font-weight:normal;font-stretch:normal;font-family:'Arial Rounded MT Bold';-inkscape-font-specification:'Arial Rounded MT Bold, ';fill:#430098;fill-opacity:1"
         id="path876" />
    </g>
    <flowRoot
       xml:space="preserve"
       id="flowRoot4541"
       style="font-style:normal;font-variant:normal;font-weight:normal;font-stretch:normal;font-size:26.66666603px;line-height:1.25;font-family:Arial;-inkscape-font-specification:Arial;text-align:center;letter-spacing:0px;word-spacing:0px;text-anchor:middle;fill:#000000;fill-opacity:1;stroke:none"
       transform="matrix(0.26458333,0,0,0.26458333,29.909373,71.583054)"><flowRegion
         id="flowRegion4543"><rect
           id="rect4545"
           width="45.729843"
           height="75.357628"
           x="209.97084"
           y="58.831718" /></flowRegion><flowPara
         id="flowPara4547" /></flowRoot>  </g>
</svg>
